<svg width="20" height="21" viewBox="0 0 20 21" fill="none" xmlns="http://www.w3.org/2000/svg">
    <path
        d="M7.07439 3.85498C7.67239 2.10498 10.0904 2.05198 10.7994 3.69598L10.8594 3.85598L11.6664 6.21598C11.8513 6.75722 12.1502 7.25249 12.5428 7.66841C12.9354 8.08432 13.4127 8.41119 13.9424 8.62698L14.1594 8.70798L16.5194 9.51398C18.2694 10.112 18.3224 12.53 16.6794 13.239L16.5194 13.299L14.1594 14.106C13.618 14.2908 13.1225 14.5896 12.7064 14.9822C12.2903 15.3749 11.9633 15.8522 11.7474 16.382L11.6664 16.598L10.8604 18.959C10.2624 20.709 7.84439 20.762 7.13639 19.119L7.07439 18.959L6.26839 16.599C6.08357 16.0576 5.78476 15.5621 5.39213 15.146C4.9995 14.7299 4.52218 14.4029 3.99239 14.187L3.77639 14.106L1.41639 13.3C-0.334611 12.702 -0.38761 10.284 1.25639 9.57598L1.41639 9.51398L3.77639 8.70798C4.31762 8.52304 4.8129 8.22418 5.22881 7.83155C5.64473 7.43893 5.9716 6.96167 6.18739 6.43198L6.26839 6.21598L7.07439 3.85498ZM8.96739 4.50098L8.16139 6.86098C7.87978 7.68629 7.42166 8.44029 6.81893 9.07048C6.21619 9.70067 5.48334 10.1919 4.67139 10.51L4.42139 10.601L2.06139 11.407L4.42139 12.213C5.24669 12.4946 6.00069 12.9527 6.63089 13.5554C7.26108 14.1582 7.75232 14.891 8.07039 15.703L8.16139 15.953L8.96739 18.313L9.77339 15.953C10.055 15.1277 10.5131 14.3737 11.1159 13.7435C11.7186 13.1133 12.4514 12.6221 13.2634 12.304L13.5134 12.214L15.8734 11.407L13.5134 10.601C12.6881 10.3194 11.9341 9.86125 11.3039 9.25852C10.6737 8.65579 10.1825 7.92293 9.86439 7.11098L9.77439 6.86098L8.96739 4.50098ZM16.9674 0.406983C17.1545 0.406982 17.3378 0.459461 17.4965 0.558454C17.6553 0.657447 17.7831 0.798985 17.8654 0.966983L17.9134 1.08398L18.2634 2.10998L19.2904 2.45998C19.4779 2.52368 19.6422 2.6416 19.7626 2.7988C19.883 2.956 19.954 3.1454 19.9667 3.343C19.9793 3.54061 19.933 3.73751 19.8336 3.90877C19.7342 4.08003 19.5862 4.21792 19.4084 4.30498L19.2904 4.35298L18.2644 4.70298L17.9144 5.72998C17.8506 5.91741 17.7326 6.08168 17.5753 6.20197C17.4181 6.32227 17.2286 6.39317 17.031 6.4057C16.8334 6.41823 16.6366 6.37183 16.4654 6.27236C16.2942 6.1729 16.1564 6.02485 16.0694 5.84698L16.0214 5.72998L15.6714 4.70398L14.6444 4.35398C14.4569 4.29029 14.2926 4.17237 14.1722 4.01517C14.0518 3.85797 13.9808 3.66856 13.9681 3.47096C13.9555 3.27336 14.0018 3.07645 14.1012 2.9052C14.2006 2.73394 14.3485 2.59604 14.5264 2.50898L14.6444 2.46098L15.6704 2.11098L16.0204 1.08398C16.0878 0.886408 16.2154 0.714891 16.3852 0.593481C16.5551 0.472071 16.7586 0.406857 16.9674 0.406983Z"
        fill="#0098FD" />
    <path
        d="M7.07439 3.85498C7.67239 2.10498 10.0904 2.05198 10.7994 3.69598L10.8594 3.85598L11.6664 6.21598C11.8513 6.75722 12.1502 7.25249 12.5428 7.66841C12.9354 8.08432 13.4127 8.41119 13.9424 8.62698L14.1594 8.70798L16.5194 9.51398C18.2694 10.112 18.3224 12.53 16.6794 13.239L16.5194 13.299L14.1594 14.106C13.618 14.2908 13.1225 14.5896 12.7064 14.9822C12.2903 15.3749 11.9633 15.8522 11.7474 16.382L11.6664 16.598L10.8604 18.959C10.2624 20.709 7.84439 20.762 7.13639 19.119L7.07439 18.959L6.26839 16.599C6.08357 16.0576 5.78476 15.5621 5.39213 15.146C4.9995 14.7299 4.52218 14.4029 3.99239 14.187L3.77639 14.106L1.41639 13.3C-0.334611 12.702 -0.38761 10.284 1.25639 9.57598L1.41639 9.51398L3.77639 8.70798C4.31762 8.52304 4.8129 8.22418 5.22881 7.83155C5.64473 7.43893 5.9716 6.96167 6.18739 6.43198L6.26839 6.21598L7.07439 3.85498ZM8.96739 4.50098L8.16139 6.86098C7.87978 7.68629 7.42166 8.44029 6.81893 9.07048C6.21619 9.70067 5.48334 10.1919 4.67139 10.51L4.42139 10.601L2.06139 11.407L4.42139 12.213C5.24669 12.4946 6.00069 12.9527 6.63089 13.5554C7.26108 14.1582 7.75232 14.891 8.07039 15.703L8.16139 15.953L8.96739 18.313L9.77339 15.953C10.055 15.1277 10.5131 14.3737 11.1159 13.7435C11.7186 13.1133 12.4514 12.6221 13.2634 12.304L13.5134 12.214L15.8734 11.407L13.5134 10.601C12.6881 10.3194 11.9341 9.86125 11.3039 9.25852C10.6737 8.65579 10.1825 7.92293 9.86439 7.11098L9.77439 6.86098L8.96739 4.50098ZM16.9674 0.406983C17.1545 0.406982 17.3378 0.459461 17.4965 0.558454C17.6553 0.657447 17.7831 0.798985 17.8654 0.966983L17.9134 1.08398L18.2634 2.10998L19.2904 2.45998C19.4779 2.52368 19.6422 2.6416 19.7626 2.7988C19.883 2.956 19.954 3.1454 19.9667 3.343C19.9793 3.54061 19.933 3.73751 19.8336 3.90877C19.7342 4.08003 19.5862 4.21792 19.4084 4.30498L19.2904 4.35298L18.2644 4.70298L17.9144 5.72998C17.8506 5.91741 17.7326 6.08168 17.5753 6.20197C17.4181 6.32227 17.2286 6.39317 17.031 6.4057C16.8334 6.41823 16.6366 6.37183 16.4654 6.27236C16.2942 6.1729 16.1564 6.02485 16.0694 5.84698L16.0214 5.72998L15.6714 4.70398L14.6444 4.35398C14.4569 4.29029 14.2926 4.17237 14.1722 4.01517C14.0518 3.85797 13.9808 3.66856 13.9681 3.47096C13.9555 3.27336 14.0018 3.07645 14.1012 2.9052C14.2006 2.73394 14.3485 2.59604 14.5264 2.50898L14.6444 2.46098L15.6704 2.11098L16.0204 1.08398C16.0878 0.886408 16.2154 0.714891 16.3852 0.593481C16.5551 0.472071 16.7586 0.406857 16.9674 0.406983Z"
        fill="url(#paint0_linear_204_864)" />
    <path
        d="M7.07439 3.85498C7.67239 2.10498 10.0904 2.05198 10.7994 3.69598L10.8594 3.85598L11.6664 6.21598C11.8513 6.75722 12.1502 7.25249 12.5428 7.66841C12.9354 8.08432 13.4127 8.41119 13.9424 8.62698L14.1594 8.70798L16.5194 9.51398C18.2694 10.112 18.3224 12.53 16.6794 13.239L16.5194 13.299L14.1594 14.106C13.618 14.2908 13.1225 14.5896 12.7064 14.9822C12.2903 15.3749 11.9633 15.8522 11.7474 16.382L11.6664 16.598L10.8604 18.959C10.2624 20.709 7.84439 20.762 7.13639 19.119L7.07439 18.959L6.26839 16.599C6.08357 16.0576 5.78476 15.5621 5.39213 15.146C4.9995 14.7299 4.52218 14.4029 3.99239 14.187L3.77639 14.106L1.41639 13.3C-0.334611 12.702 -0.38761 10.284 1.25639 9.57598L1.41639 9.51398L3.77639 8.70798C4.31762 8.52304 4.8129 8.22418 5.22881 7.83155C5.64473 7.43893 5.9716 6.96167 6.18739 6.43198L6.26839 6.21598L7.07439 3.85498ZM8.96739 4.50098L8.16139 6.86098C7.87978 7.68629 7.42166 8.44029 6.81893 9.07048C6.21619 9.70067 5.48334 10.1919 4.67139 10.51L4.42139 10.601L2.06139 11.407L4.42139 12.213C5.24669 12.4946 6.00069 12.9527 6.63089 13.5554C7.26108 14.1582 7.75232 14.891 8.07039 15.703L8.16139 15.953L8.96739 18.313L9.77339 15.953C10.055 15.1277 10.5131 14.3737 11.1159 13.7435C11.7186 13.1133 12.4514 12.6221 13.2634 12.304L13.5134 12.214L15.8734 11.407L13.5134 10.601C12.6881 10.3194 11.9341 9.86125 11.3039 9.25852C10.6737 8.65579 10.1825 7.92293 9.86439 7.11098L9.77439 6.86098L8.96739 4.50098ZM16.9674 0.406983C17.1545 0.406982 17.3378 0.459461 17.4965 0.558454C17.6553 0.657447 17.7831 0.798985 17.8654 0.966983L17.9134 1.08398L18.2634 2.10998L19.2904 2.45998C19.4779 2.52368 19.6422 2.6416 19.7626 2.7988C19.883 2.956 19.954 3.1454 19.9667 3.343C19.9793 3.54061 19.933 3.73751 19.8336 3.90877C19.7342 4.08003 19.5862 4.21792 19.4084 4.30498L19.2904 4.35298L18.2644 4.70298L17.9144 5.72998C17.8506 5.91741 17.7326 6.08168 17.5753 6.20197C17.4181 6.32227 17.2286 6.39317 17.031 6.4057C16.8334 6.41823 16.6366 6.37183 16.4654 6.27236C16.2942 6.1729 16.1564 6.02485 16.0694 5.84698L16.0214 5.72998L15.6714 4.70398L14.6444 4.35398C14.4569 4.29029 14.2926 4.17237 14.1722 4.01517C14.0518 3.85797 13.9808 3.66856 13.9681 3.47096C13.9555 3.27336 14.0018 3.07645 14.1012 2.9052C14.2006 2.73394 14.3485 2.59604 14.5264 2.50898L14.6444 2.46098L15.6704 2.11098L16.0204 1.08398C16.0878 0.886408 16.2154 0.714891 16.3852 0.593481C16.5551 0.472071 16.7586 0.406857 16.9674 0.406983Z"
        fill="url(#paint1_linear_204_864)" />
    <defs>
        <linearGradient id="paint0_linear_204_864" x1="1.73733" y1="20.3126" x2="23.0727" y2="16.0898"
            gradientUnits="userSpaceOnUse">
            <stop stop-color="#0158F7" />
            <stop offset="1" stop-color="#7839EE" />
        </linearGradient>
        <linearGradient id="paint1_linear_204_864" x1="1.73733" y1="20.3126" x2="23.0727" y2="16.0898"
            gradientUnits="userSpaceOnUse">
            <stop stop-color="#0158F7" />
            <stop offset="1" stop-color="#7839EE" />
        </linearGradient>
    </defs>
</svg>