<svg width="48" height="37" viewBox="0 0 48 37" fill="none" xmlns="http://www.w3.org/2000/svg">
<g clip-path="url(#clip0_204_1214)">
<path d="M25.3198 7.53021C21.5927 7.53021 18.5598 10.5631 18.5598 14.2902V23.6502C18.5598 27.3773 21.5927 30.4102 25.3198 30.4102H34.6798C38.4069 30.4102 41.4398 27.3773 41.4398 23.6502V14.2902C41.4398 10.5631 38.4069 7.53021 34.6798 7.53021H25.3198ZM25.3198 8.57021H34.6798C37.8448 8.57021 40.3998 11.1252 40.3998 14.2902V23.6502C40.3998 26.8152 37.8448 29.3702 34.6798 29.3702H25.3198C22.1548 29.3702 19.5998 26.8152 19.5998 23.6502V14.2902C19.5998 11.1252 22.1548 8.57021 25.3198 8.57021ZM36.2398 11.6902C35.964 11.6902 35.6995 11.7998 35.5044 11.9948C35.3094 12.1899 35.1998 12.4544 35.1998 12.7302C35.1998 13.006 35.3094 13.2706 35.5044 13.4656C35.6995 13.6606 35.964 13.7702 36.2398 13.7702C36.5156 13.7702 36.7802 13.6606 36.9752 13.4656C37.1702 13.2706 37.2798 13.006 37.2798 12.7302C37.2798 12.4544 37.1702 12.1899 36.9752 11.9948C36.7802 11.7998 36.5156 11.6902 36.2398 11.6902ZM29.9998 13.2502C26.8469 13.2502 24.2798 15.8173 24.2798 18.9702C24.2798 22.1231 26.8469 24.6902 29.9998 24.6902C33.1527 24.6902 35.7198 22.1231 35.7198 18.9702C35.7198 15.8173 33.1527 13.2502 29.9998 13.2502ZM29.9998 14.2902C32.5907 14.2902 34.6798 16.3794 34.6798 18.9702C34.6798 21.5611 32.5907 23.6502 29.9998 23.6502C27.409 23.6502 25.3198 21.5611 25.3198 18.9702C25.3198 16.3794 27.409 14.2902 29.9998 14.2902Z" fill="white"/>
</g>
<rect x="12.4993" y="1.47015" width="35" height="35" rx="5.5" stroke="#D3D3D3"/>
<defs>
<clipPath id="clip0_204_1214">
<rect x="11.9993" y="0.970154" width="36" height="36" rx="6" fill="white"/>
</clipPath>
</defs>
</svg>
